<?xml version="1.0" encoding="iso-8859-1"?>
<!-- Generator: Adobe Illustrator 19.0.0, SVG Export Plug-In . SVG Version: 6.00 Build 0)  -->
<svg version="1.1" id="Layer_1" xmlns="http://www.w3.org/2000/svg" xmlns:xlink="http://www.w3.org/1999/xlink" x="0px" y="0px"
	 viewBox="0 0 512 512" style="enable-background:new 0 0 512 512;" xml:space="preserve">
<circle style="fill:#EAEAED;" cx="256" cy="256" r="256"/>
<path style="fill:#D9D9DD;" d="M510.826,280.433C498.528,410.346,389.128,512,256,512c-9.248,0-18.354-0.493-27.344-1.455
	l-96.114-96.114l246.917-265.365L510.826,280.433z"/>
<polygon style="fill:#F7F7F7;" points="132.542,97.57 327.963,97.57 379.458,149.065 379.458,414.43 132.542,414.43 "/>
<polygon style="fill:#EBECEC;" points="353.71,123.318 379.458,149.065 379.458,414.43 132.542,414.43 "/>
<polygon style="fill:#2DAAE2;" points="132.542,97.57 327.963,97.57 379.458,149.065 379.458,173.827 132.542,173.827 "/>
<polygon style="fill:#89C7FA;" points="327.963,97.57 327.963,149.065 379.458,149.065 "/>
<path style="fill:#FFFFFF;" d="M150.239,158.548v-44.713h14.482c5.492,0,9.06,0.211,10.726,0.657
	c2.558,0.681,4.718,2.136,6.431,4.389c1.737,2.253,2.605,5.14,2.605,8.708c0,2.746-0.493,5.046-1.502,6.924
	c-0.986,1.878-2.253,3.356-3.779,4.413c-1.526,1.056-3.098,1.784-4.671,2.112c-2.159,0.422-5.281,0.657-9.365,0.657h-5.868v16.852
	H150.239z M159.299,121.393v12.745h4.929c3.544,0,5.915-0.258,7.112-0.704c1.197-0.469,2.136-1.221,2.817-2.23
	c0.681-0.986,1.009-2.136,1.009-3.474c0-1.643-0.469-2.981-1.432-4.037c-0.939-1.08-2.136-1.737-3.615-1.995
	c-1.056-0.211-3.216-0.305-6.478-0.305H159.299z M189.553,144.066l8.802-0.868c0.516,2.934,1.596,5.093,3.192,6.478
	c1.62,1.385,3.802,2.065,6.548,2.065c2.887,0,5.07-0.61,6.548-1.831c1.455-1.244,2.206-2.676,2.206-4.319
	c0-1.056-0.329-1.948-0.939-2.699c-0.61-0.751-1.69-1.385-3.239-1.925c-1.056-0.376-3.45-1.033-7.182-1.972
	c-4.835-1.197-8.215-2.676-10.163-4.436c-2.746-2.464-4.107-5.492-4.107-9.036c0-2.277,0.657-4.413,1.925-6.408
	c1.291-1.995,3.145-3.497,5.586-4.53c2.418-1.056,5.328-1.573,8.778-1.573c5.586,0,9.811,1.244,12.627,3.732
	c2.84,2.488,4.295,5.797,4.46,9.952l-9.06,0.305c-0.399-2.3-1.22-3.967-2.464-4.976c-1.267-1.009-3.169-1.526-5.68-1.526
	c-2.605,0-4.647,0.563-6.126,1.643c-0.939,0.681-1.408,1.62-1.408,2.793c0,1.056,0.446,1.948,1.338,2.699
	c1.127,0.986,3.896,1.972,8.285,3.028c4.366,1.009,7.605,2.112,9.694,3.216c2.112,1.103,3.755,2.605,4.952,4.53
	c1.174,1.948,1.784,4.319,1.784,7.135c0,2.558-0.704,4.976-2.136,7.206c-1.432,2.23-3.45,3.896-6.056,4.976
	c-2.605,1.103-5.844,1.643-9.717,1.643c-5.657,0-9.999-1.291-13.026-3.92C191.947,152.844,190.14,149.042,189.553,144.066z
	 M233.585,113.835h16.477c3.708,0,6.548,0.282,8.497,0.845c2.605,0.775,4.859,2.136,6.713,4.131
	c1.878,1.972,3.309,4.366,4.272,7.229c0.986,2.863,1.455,6.384,1.455,10.585c0,3.685-0.446,6.854-1.361,9.506
	c-1.127,3.262-2.723,5.891-4.788,7.91c-1.549,1.526-3.661,2.723-6.314,3.568c-1.995,0.634-4.647,0.939-7.98,0.939h-16.97V113.835z
	 M242.645,121.393v29.597h6.713c2.511,0,4.319-0.141,5.445-0.422c1.455-0.352,2.676-0.986,3.638-1.854
	c0.962-0.892,1.737-2.324,2.347-4.319c0.61-1.995,0.915-4.741,0.915-8.191s-0.305-6.102-0.915-7.957
	c-0.61-1.854-1.455-3.286-2.558-4.342c-1.08-1.009-2.464-1.737-4.154-2.089c-1.267-0.282-3.732-0.422-7.393-0.422H242.645z"/>
<path style="fill:#2DAAE2;" d="M256.094,220.371c0.681-0.399,1.455-0.798,2.253-1.056c-0.094,0.211,0.023,0.047-0.141,0.258
	l-0.563,0.493c-0.258,0.235-0.469,0.399-0.728,0.634c-1.526,1.479-2.863,2.746-4.225,4.201l-2.91,3.286
	c-0.164,0.211-0.258,0.376-0.422,0.563c-0.164,0.188-0.329,0.422-0.493,0.563c0.023-0.61,0.117-0.141,0.258-0.751
	c0.094-0.352,0.211-1.596,0.141-1.925c0.117-0.117,0.235-0.141,0.376-0.235l-0.141-0.845c0.164-0.141,0.141-0.047,0.305-0.211
	c0.023-0.023,0.141-0.164,0.188-0.235c-0.188-0.352,0.023-0.023-0.282-0.282c0.07-0.469-0.047,0.282,0.07-0.211
	c0.023-0.023,0.023-0.047,0.023-0.047v-0.094c0.023-0.023,0-0.023,0-0.047c-0.094-0.023,0.117-0.117-0.258,0.023
	C249.827,224.009,255.343,220.723,256.094,220.371z M226.591,327.094l2.699-0.164c1.62-0.07,3.685-0.399,5.304-0.868
	c1.385-0.376,3.685-1.338,4.225-2.371c-5.962,1.338-7.886,0.282-8.755,0.446l-2.84-0.704l-0.399-0.188
	c-0.141-0.047-0.258-0.094-0.422-0.141c-0.282-0.094-0.516-0.188-0.798-0.305l-4.366-2.042c-0.164-0.07-0.094-0.047-0.188-0.047
	l-0.352-0.282c-0.329-0.188-2.23-1.408-2.464-1.455c0.07-0.235-0.164-0.094,0.258-0.141l2.136,0.282
	c0.845,0.07,1.643,0.141,2.535,0.164c3.802,0.141,7.487-0.211,11.313-1.197c1.385-0.352,4.483-1.244,5.61-1.901
	c1.878-0.657,4.765-2.23,6.572-3.309c0.329-0.211,0.681-0.399,1.009-0.61c0.188-0.117,0.305-0.211,0.493-0.305l0.516-0.422
	c0.61-0.141,4.952-3.333,5.727-3.896c1.831-1.385,3.638-2.723,5.469-4.107c3.802-2.863,7.792-5.633,12.933-6.901
	c-0.587-1.338-5.797-0.422-7.558-0.211c-1.573,0.211-6.783,0.868-8.004,0.493c0.258-0.282,1.807-1.197,2.277-1.526
	c3.661-2.488,7.276-5.281,10.632-8.215c0.657-0.587,3.591-3.122,3.873-3.568c0.657-0.399,4.999-4.882,5.915-5.844l0.634-0.657
	c0.164-0.188,0.07-0.023,0.164-0.282c0.188-0.07,0.211-0.117,0.422-0.282c1.502-0.798,4.788-3.521,6.102-4.718
	c2.817-2.582,5.258-5.281,7.534-8.215l2.746-3.708c0.211-0.258,0.329-0.516,0.516-0.798c0.305-0.399,2.91-4.319,3.004-4.718
	l0.329-0.399c0.751-0.422,1.854-1.408,2.488-1.972c9.881-8.778,16.078-23.236,15.843-36.709c-0.023-1.831-0.352-6.29-0.986-7.792
	c-1.385,1.056-4.389,2.277-6.056,3.122c-6.83,3.356-11.102,5.633-17.791,9.623c-6.431,3.849-12.487,8.285-18.425,12.886
	c-0.704,0.563-1.76,1.526-2.464,1.948c-0.211,0.07-1.643,0.352-2.089,0.446c-0.704,0.188-1.408,0.352-2.136,0.516
	c0-0.352-0.047-0.117,0.07-0.399c0.376-0.399,0.962-0.775,1.408-1.127c0.493-0.399,0.915-0.704,1.385-1.08
	c0.915-0.704,1.878-1.432,2.817-2.112c1.526-1.197,3.239-2.324,4.835-3.45c7.3-5.187,18.354-11.689,26.311-15.444
	c0.469-0.211,11.36-5.258,12.135-4.929c0.117-0.094,0.094,0.117,0.07-0.188c-0.657-0.376-1.854-1.432-3.098-2.183l-1.596-1.009
	c-1.854-1.291-6.431-3.38-8.59-4.225c-4.718-1.831-10.257-3.098-16.266-2.77c-4.788,0.258-8.802,2.699-12.158,6.009
	c-1.056,1.033-1.807,2.089-2.652,3.169c-0.915,1.15-1.502,2.183-2.23,3.403c-1.737,2.887-3.544,7.182-4.53,10.539
	c-0.094,0.376-0.188,0.845-0.376,1.103c-0.235-3.192,1.737-9.67,2.91-12.698c0.376-0.962,0.798-1.901,1.22-2.793
	c0.962-2.019,2.418-4.694,3.708-6.525c0.141-0.235,0.751-1.15,0.822-1.338c-1.573,0.469-5.633,3.262-6.994,4.248
	c-2.183,1.526-4.225,3.122-6.196,4.765c-1.972,1.666-3.896,3.427-5.61,5.187c-0.939,0.939-1.69,1.76-2.582,2.699l-2.394,2.863
	c-0.54,0.446-2.77,3.544-3.239,4.272c-0.469,0.775-0.986,1.432-1.455,2.206c-0.258,0.399-0.376,0.657-0.681,1.127
	c-0.164,0.258-0.211,0.329-0.329,0.587l-0.329,0.657l-0.164,0.164l-2.957,2.206c-6.314,4.905-11.219,10.022-16.172,16.312
	c-0.188,0.235-0.376,0.469-0.54,0.704c-0.188,0.258-0.422,0.54-0.516,0.728l-3.826,5.657c-4.553,7.323-7.933,15.374-9.952,23.917
	c-0.188,0.798-1.033,4.319-0.962,4.929c-0.563,0.798-1.244,9.905-1.338,11.501c-0.141,3.051-0.141,6.29,0.023,9.342
	c0.023,0.563,0.047,1.08,0.094,1.62c0.023,0.469,0.164,1.314,0,1.643c-0.047-0.493-0.54-1.713-0.704-2.277
	c-0.164-0.54-0.446-2.159-0.704-2.441c0-0.61-0.399-2.324-0.516-3.075c-0.282-1.878-0.446-4.014-0.446-5.915
	c-0.023-0.939,0.07-1.901,0.023-2.817c0.188-1.338,0.211-2.817,0.399-4.178c0.188-1.432,0.399-2.77,0.704-4.107
	c0.376-1.784,0.915-4.084,1.479-5.821c0.211-0.634,0.469-1.314,0.61-1.901c-1.549,1.573-5.046,7.487-5.985,9.224
	c-0.868,1.596-1.643,3.309-2.347,5.046c-0.305,0.751-1.854,4.882-1.784,5.516c-0.282,0.376-0.751,2.934-0.821,3.333
	c-0.704,4.154-0.775,7.112-0.282,11.43c0.282,1.995,0.728,3.333,1.267,5.14c-1.596,0.094-3.967-0.399-5.586,0.07
	c0.164,0.211,0.563,0.446,0.798,0.634c2.065,1.526,3.38,3.474,4.389,6.103l0.282,0.962l-3.896-1.033
	c-1.479-0.282-3.028-0.493-4.483,0.422c0.681,0.563,3.802-0.258,5.844,6.149c0.728,2.277,1.338,5.657,2.558,7.487
	c0.54,0.798,0.868,0.986,1.502,1.432l-1.009,2.91c-0.305,0.704-1.127,3.309-1.455,4.272c-2.206,6.29-4.647,16.172-5.61,22.72
	c-0.399,2.605-0.986,7.417-0.962,9.952c0.258-0.211,0.493-0.563,0.681-0.868c0.235-0.376,0.399-0.54,0.681-0.986
	c0.211-0.352,0.422-0.587,0.634-0.939c0.235-0.376,0.376-0.61,0.634-1.009c0.868-1.361,1.408-2.934,1.713-4.577
	c0.61-3.356,1.385-6.689,2.206-9.928c0.821-3.286,1.737-6.408,2.629-9.6c0.634-2.3,1.807-5.868,2.629-8.238
	c0.117-0.305,0.352-0.915,0.352-1.197c0.235-0.258,1.127-2.981,1.338-3.544c0.211-0.563,0.422-1.22,0.657-1.784
	c0.211-0.587,0.493-1.244,0.657-1.784c0.892-0.188,2.464,0,3.309,0.117c1.08,0.141,2.136,0.493,3.122,0.61
	c0.141,0.117,4.131,1.127,4.624,1.127c0.305,0.235,2.84,0.399,3.497,0.399c1.432,0,2.863-0.211,4.319-0.634
	c-0.235-0.446-3.051-1.385-3.521-1.549l-2.629-1.174c-0.305-0.164-0.587-0.399-0.868-0.446c-0.282-0.422-0.821-0.54-0.892-1.291
	c0.352-0.188,0.751-0.141,1.127-0.188H226.591z M216.451,318.48l-3.403-0.704c0.188-0.446,0.563-1.432,0.821-1.831
	c0.094,0.188,1.385,1.009,1.878,1.385c0.634,0.469,1.455,0.798,2.042,1.314C217.554,318.762,216.803,318.504,216.451,318.48z
	 M211.053,314.068l-0.282-1.62c0.094-0.235,0-0.422-0.047-0.821c-0.047-0.305-0.07-0.61-0.117-0.915
	c-0.094-0.892-0.681-4.718-0.587-5.046c0.282,0.751,0.892,1.854,1.267,2.629c0.422,0.845,0.892,1.76,1.385,2.535
	c-0.07,0.211,0,0-0.094,0.235l-1.103,2.23c-0.07,0.164-0.117,0.258-0.188,0.399L211.053,314.068z M246.471,281.654
	c-1.549-0.047-9.975-2.723-11.477-3.544c0.094-0.235,0.634-1.056,0.822-1.244c0.728,0.563,4.154,1.737,5.187,2.042
	c1.267,0.352,4.506,1.244,5.75,1.314c0.023,0.399-0.047,0.469-0.047,0.493v0.61c-0.023,0.023-0.023,0.023-0.07,0.047
	c-0.023,0.023-0.047,0.047-0.07,0.047c-0.117,0.07-0.047,0.023-0.117,0.047l-0.047,0.023l0,0l0,0
	c0.047-0.023,0.023-0.141,0.047-0.023C246.447,281.513,246.471,281.56,246.471,281.654z M240.439,247.057
	c0.188,0.188,0.141,1.291,0.164,1.76c0.023,0.657,0.07,1.314,0.141,1.948c0.305,2.723,0.775,5.14,1.573,7.745
	c0.258,0.845,1.033,2.676,1.127,3.38c-0.258,0.422-0.54,0.704-0.868,1.127c-0.235,0.305-0.681,0.939-0.915,1.127
	c-0.422-0.516-1.267-4.366-1.408-5.281c-0.329-1.972-0.399-3.615-0.446-5.586c0.023-1.056,0.094-2.159,0.211-3.169
	c0.047-0.516,0.117-1.056,0.211-1.549C240.298,248.09,240.486,247.48,240.439,247.057z"/>
<g>
</g>
<g>
</g>
<g>
</g>
<g>
</g>
<g>
</g>
<g>
</g>
<g>
</g>
<g>
</g>
<g>
</g>
<g>
</g>
<g>
</g>
<g>
</g>
<g>
</g>
<g>
</g>
<g>
</g>
</svg>
