<?xml version="1.0"?>
<svg xmlns="http://www.w3.org/2000/svg" xmlns:xlink="http://www.w3.org/1999/xlink" width="512" height="512" viewBox="0 0 512 512"><defs><linearGradient id="a" data-name="New Gradient Swatch 1" x1="11" y1="521" x2="503.406" y2="28.594" gradientUnits="userSpaceOnUse"><stop offset="0" stop-color="#003f8a"/><stop offset="0.518" stop-color="#00d7df"/><stop offset="1" stop-color="#006df0"/></linearGradient><linearGradient id="b" x1="39" y1="549" x2="531.406" y2="56.594" xlink:href="#a"/><linearGradient id="c" x1="27" y1="537" x2="519.406" y2="44.594" xlink:href="#a"/><linearGradient id="d" x1="-151" y1="359" x2="341.406" y2="-133.406" xlink:href="#a"/><linearGradient id="e" x1="-139" y1="371" x2="353.406" y2="-121.406" xlink:href="#a"/><linearGradient id="f" x1="-127" y1="383" x2="365.406" y2="-109.406" xlink:href="#a"/><linearGradient id="g" x1="-61" y1="449" x2="431.406" y2="-43.406" xlink:href="#a"/><linearGradient id="h" x1="-31" y1="479" x2="461.406" y2="-13.406" xlink:href="#a"/><linearGradient id="i" x1="-19" y1="491" x2="473.406" y2="-1.406" xlink:href="#a"/><linearGradient id="j" x1="9" y1="519" x2="501.406" y2="26.594" xlink:href="#a"/><linearGradient id="k" x1="1" y1="511" x2="493.406" y2="18.594" xlink:href="#a"/><linearGradient id="l" x1="-23" y1="487" x2="469.406" y2="-5.406" xlink:href="#a"/><linearGradient id="m" x1="15" y1="525" x2="507.406" y2="32.594" xlink:href="#a"/><linearGradient id="n" x1="49" y1="559" x2="541.406" y2="66.594" xlink:href="#a"/><linearGradient id="o" x1="35" y1="545" x2="527.406" y2="52.594" xlink:href="#a"/></defs><g><path d="M96,456H40a8,8,0,0,0,0,16H96a8,8,0,0,0,0-16Z" fill="url(#a)"/><path d="M128,456h-8a8,8,0,0,0,0,16h8a8,8,0,0,0,0-16Z" fill="url(#b)"/><path d="M472,8H168a32.036,32.036,0,0,0-32,32V152H88a48.051,48.051,0,0,0-48,48V432H16a8,8,0,0,0-8,8v24a32.036,32.036,0,0,0,32,32H456a32.036,32.036,0,0,0,32-32V440a8,8,0,0,0-8-8H456V336h16a32.036,32.036,0,0,0,32-32V40A32.036,32.036,0,0,0,472,8ZM168,336H408v72H88V200h48V304A32.036,32.036,0,0,0,168,336ZM56,200a32.036,32.036,0,0,1,32-32h48v16H80a8,8,0,0,0-8,8V416a8,8,0,0,0,8,8H416a8,8,0,0,0,8-8V336h16v96H56ZM268.9,448l-2.67,8H229.77l-2.67-8ZM472,448v16a16.021,16.021,0,0,1-16,16H40a16.021,16.021,0,0,1-16-16V448H210.23l6.18,18.53A8,8,0,0,0,224,472h48a8,8,0,0,0,7.59-5.47L285.77,448Zm16-144a16.021,16.021,0,0,1-16,16H168a16.021,16.021,0,0,1-16-16V72H488Zm0-248H152V40a16.021,16.021,0,0,1,16-16H472a16.021,16.021,0,0,1,16,16Z" fill="url(#c)"/><circle cx="168" cy="40" r="8" fill="url(#d)"/><circle cx="192" cy="40" r="8" fill="url(#e)"/><circle cx="216" cy="40" r="8" fill="url(#f)"/><path d="M336,88H176a8,8,0,0,0-8,8v72a8,8,0,0,0,8,8H336a8,8,0,0,0,8-8V96A8,8,0,0,0,336,88Zm-8,72H184V104H328Z" fill="url(#g)"/><path d="M336,184H176a8,8,0,0,0,0,16H336a8,8,0,0,0,0-16Z" fill="url(#h)"/><path d="M336,208H176a8,8,0,0,0,0,16H336a8,8,0,0,0,0-16Z" fill="url(#i)"/><path d="M336,264H176a8,8,0,0,0,0,16H336a8,8,0,0,0,0-16Z" fill="url(#j)"/><path d="M256,288H176a8,8,0,0,0,0,16h80a8,8,0,0,0,0-16Z" fill="url(#k)"/><path d="M176,248h96a8,8,0,0,0,0-16H176a8,8,0,0,0,0,16Z" fill="url(#l)"/><path d="M304,248a8,8,0,0,0,0-16h-8a8,8,0,0,0,0,16Z" fill="url(#m)"/><path d="M464,88H360a8,8,0,0,0-8,8V296a8,8,0,0,0,8,8H464a8,8,0,0,0,8-8V96A8,8,0,0,0,464,88Zm-8,200H368V104h88Z" fill="url(#n)"/><path d="M288,288h-8a8,8,0,0,0,0,16h8a8,8,0,0,0,0-16Z" fill="url(#o)"/></g></svg>
